# xmcd CD database file
#
# Track frame offsets:
#	150
#	3745
#	20782
#	39624
#	58704
#	76828
#	96746
#	113094
#	130754
#	150293
#	167569
#
# Disc length: 2476 seconds
#
# Revision: 6
# Processed by: cddbd v1.5.2PL0 Copyright (c) Steve Scherf et al.
# Submitted via: CDex 1.70beta3
#
DISCID=8609aa0b
DTITLE=すかんち - 恋のウルトラ大作戦
DYEAR=1990
DGENRE=Rock
TTITLE0=HONEY
TTITLE1=君は窓辺のパントマイム
TTITLE2=恋のT.K.O. (Album Re-Mix)
TTITLE3=魅惑のYoung Love
TTITLE4=ウルトラ　ロケットマン
TTITLE5=OK！ Baby Joe
TTITLE6=炎のロックマシーン
TTITLE7=涙の転校生
TTITLE8=秘密の24時
TTITLE9=恋のショック療法
TTITLE10=スローソンの小屋
EXTD=YEAR: 1990
EXTT0=
EXTT1=
EXTT2=
EXTT3=
EXTT4=
EXTT5=
EXTT6=
EXTT7=
EXTT8=
EXTT9=
EXTT10=
PLAYORDER=
